<svg width="135" height="36" viewBox="0 0 135 36" fill="none" xmlns="http://www.w3.org/2000/svg">
<path d="M0 0H3.7V31.8H23.3V35H0V0ZM37.2434 35.25C35.1101 35.25 33.0601 34.95 31.0934 34.35C29.1601 33.7167 27.6434 32.9333 26.5434 32L28.1434 29.2C29.2434 30.0667 30.6267 30.7833 32.2934 31.35C33.9601 31.8833 35.6934 32.15 37.4934 32.15C39.8934 32.15 41.6601 31.7833 42.7934 31.05C43.9601 30.2833 44.5434 29.2167 44.5434 27.85C44.5434 26.8833 44.2267 26.1333 43.5934 25.6C42.9601 25.0333 42.1601 24.6167 41.1934 24.35C40.2267 24.05 38.9434 23.7667 37.3434 23.5C35.2101 23.1 33.4934 22.7 32.1934 22.3C30.8934 21.8667 29.7767 21.15 28.8434 20.15C27.9434 19.15 27.4934 17.7667 27.4934 16C27.4934 13.8 28.4101 12 30.2434 10.6C32.0767 9.2 34.6267 8.5 37.8934 8.5C39.5934 8.5 41.2934 8.7333 42.9934 9.2C44.6934 9.6333 46.0934 10.2167 47.1934 10.95L45.6434 13.8C43.4767 12.3 40.8934 11.55 37.8934 11.55C35.6267 11.55 33.9101 11.95 32.7434 12.75C31.6101 13.55 31.0434 14.6 31.0434 15.9C31.0434 16.9 31.3601 17.7 31.9934 18.3C32.6601 18.9 33.4767 19.35 34.4434 19.65C35.4101 19.9167 36.7434 20.2 38.4434 20.5C40.5434 20.9 42.2267 21.3 43.4934 21.7C44.7601 22.1 45.8434 22.7833 46.7434 23.75C47.6434 24.7167 48.0934 26.05 48.0934 27.75C48.0934 30.05 47.1267 31.8833 45.1934 33.25C43.2934 34.5833 40.6434 35.25 37.2434 35.25ZM70.0063 33.4C69.3396 34 68.5063 34.4667 67.5063 34.8C66.5396 35.1 65.5229 35.25 64.4563 35.25C61.9896 35.25 60.0896 34.5833 58.7563 33.25C57.4229 31.9167 56.7563 30.0333 56.7563 27.6V11.7H52.0563V8.7H56.7563V2.95H60.3063V8.7H68.3063V11.7H60.3063V27.4C60.3063 28.9667 60.6896 30.1667 61.4563 31C62.2563 31.8 63.3896 32.2 64.8563 32.2C65.5896 32.2 66.2896 32.0833 66.9563 31.85C67.6563 31.6167 68.2563 31.2833 68.7563 30.85L70.0063 33.4Z" fill="white"/>
<path d="M16.1594 29.5C21.9584 29.5 26.6594 24.799 26.6594 19C26.6594 13.201 21.9584 8.5 16.1594 8.5C10.3604 8.5 5.65936 13.201 5.65936 19C5.65936 24.799 10.3604 29.5 16.1594 29.5Z" stroke="white"/>
<path d="M16.1594 22C17.8162 22 19.1594 20.6569 19.1594 19C19.1594 17.3431 17.8162 16 16.1594 16C14.5025 16 13.1594 17.3431 13.1594 19C13.1594 20.6569 14.5025 22 16.1594 22Z" fill="#0ABB1C"/>
<path d="M98.4653 20.272L92.8932 35H91.0172L86.3691 22.932L81.7211 35H79.8451L74.3011 20.272H76.2051L80.8251 32.788L85.5571 20.272H87.2651L91.9691 32.788L96.6453 20.272H98.4653ZM127.625 20.16C129.006 20.16 130.257 20.4773 131.377 21.112C132.497 21.728 133.374 22.6053 134.009 23.744C134.643 24.8827 134.961 26.18 134.961 27.636C134.961 29.092 134.643 30.3893 134.009 31.528C133.374 32.6667 132.497 33.5533 131.377 34.188C130.257 34.8227 129.006 35.14 127.625 35.14C126.393 35.14 125.282 34.8787 124.293 34.356C123.322 33.8333 122.538 33.0773 121.941 32.088V35H120.037V14.224H122.025V23.072C122.641 22.12 123.425 21.4013 124.377 20.916C125.347 20.412 126.43 20.16 127.625 20.16ZM127.485 33.376C128.511 33.376 129.445 33.1427 130.285 32.676C131.125 32.1907 131.778 31.5093 132.245 30.632C132.73 29.7547 132.973 28.756 132.973 27.636C132.973 26.516 132.73 25.5173 132.245 24.64C131.778 23.7627 131.125 23.0907 130.285 22.624C129.445 22.1387 128.511 21.896 127.485 21.896C126.439 21.896 125.497 22.1387 124.657 22.624C123.835 23.0907 123.182 23.7627 122.697 24.64C122.23 25.5173 121.997 26.516 121.997 27.636C121.997 28.756 122.23 29.7547 122.697 30.632C123.182 31.5093 123.835 32.1907 124.657 32.676C125.497 33.1427 126.439 33.376 127.485 33.376Z" fill="white"/>
<path d="M115.122 28.252H102.802C102.914 29.7827 103.502 31.024 104.566 31.976C105.63 32.9093 106.974 33.376 108.598 33.376C109.513 33.376 110.353 33.2173 111.118 32.9C111.884 32.564 112.546 32.0787 113.106 31.444L114.226 32.732C113.573 33.516 112.752 34.1133 111.762 34.524C110.792 34.9347 109.718 35.14 108.542 35.14C107.03 35.14 105.686 34.8227 104.51 34.188C103.353 33.5347 102.448 32.6387 101.794 31.5C101.141 30.3613 100.814 29.0733 100.814 27.636C100.814 26.1987 101.122 24.9107 101.738 23.772C102.373 22.6333 103.232 21.7467 104.314 21.112C105.416 20.4773 106.648 20.16 108.01 20.16C109.373 20.16 110.596 20.4773 111.678 21.112C112.761 21.7467 113.61 22.6333 114.226 23.772C114.842 24.892 115.15 26.18 115.15 27.636L115.122 28.252ZM108.01 21.868C106.592 21.868 105.397 22.3253 104.426 23.24C103.474 24.136 102.933 25.312 102.802 26.768H113.246C113.116 25.312 112.565 24.136 111.594 23.24C110.642 22.3253 109.448 21.868 108.01 21.868Z" fill="#005DE8"/>
</svg>
