<?xml version="1.0" encoding="UTF-8"?>
<svg width="210mm" height="297mm" version="1.1" viewBox="0 0 744.09448819 1052.3622047" xmlns="http://www.w3.org/2000/svg" xmlns:xlink="http://www.w3.org/1999/xlink">
 <defs>
  <linearGradient id="b" x1="311.46" x2="382.8" y1="875.37" y2="502.17" gradientUnits="userSpaceOnUse">
   <stop stop-color="#8b4513" offset="0"/>
   <stop stop-color="#8b4513" stop-opacity="0" offset="1"/>
  </linearGradient>
 </defs>
 <path d="m262.06 146.81c-17.936 24.1-19.473 54.639-8.7969 81.84 10.322 26.298 32.19 49.512 61.205 59.213 1.1895 11.314 3.5886 23.124 6.7168 35.145 9.4699 36.389 27.384 80.013 38.383 116.4 4.7648 15.763 8.4491 30.674 10.367 44.445-10.183-6.6762-20.774-11.668-31.357-15.619-21.524-8.0362-46.37-12.81-65.475-18.592-20.191-6.1102-38.319-14.267-51.791-30.682-13.621-16.596-22.801-42.016-23.738-82.807-0.93101 40.521 6.2604 67.297 19.254 86.17 11.727 17.034 27.945 27.275 46.037 35.164-14.052 6.8964-25.346 17.021-36.486 24.955-7.2564 5.1678-14.8 9.726-23.52 12.5-8.734 2.7785-18.766 3.8044-30.951 1.7402 12.036 2.7798 22.265 2.539 31.529 0.37305 9.2762-2.1688 17.455-6.237 25.336-10.939 15.152-9.0409 27.907-19.38 45.156-24.131 19.905 7.5984 38.401 12.534 58.145 21.789 14.323 6.7143 27.543 15.075 39.045 27.029-0.59724 7.8873-2.1612 14.821-4.6914 20.846-16.386 43.74-31.582 79.864-45.562 115.43-2.4584 6.2538-4.841 12.437-7.1816 18.598-23.851-13.787-45.993-22.1-66.025-27.893 12.829-16.597 18.928-34.432 20.666-52.66 2.0048-21.022-1.7049-43.021-7.6348-65.115 3.0698 23.019 3.5204 44.39-1.2148 63.609-4.6819 19.003-14.282 35.33-30.902 49.156-21.904-5.2625-38.945-7.9033-55.029-13.416-9.0076-3.0874-17.036-6.9463-24.113-12.482-7.0962-5.5512-13.508-12.999-18.98-23.475-11.06-21.17-17.904-53.935-19.312-105.93-1.3966 51.562 2.5163 85.682 11.635 109.38 4.614 11.99 10.625 21.497 18.133 29.328 7.5136 7.8368 16.276 13.733 26.027 18.662 6.5596 3.3159 13.829 6.2793 21.523 9.1309-10.238 14.418-23.673 22.531-38.828 25.186-16.913 2.9622-35.818-0.93487-53.584-10.572 16.437 11.397 35.534 18.091 54.355 17.123 18.305-0.94166 36.373-9.1916 50.662-27.252 10.32 3.5716 21.062 7.1504 31.783 11.246 21.448 8.1932 44.679 19.016 69.553 36.977-6.1053 17.715-11.541 35.388-16.059 53.486-8.718 34.925-14.009 71.307-14.264 112.44-0.25503 41.155 4.5345 86.418 15.475 139.35l90.053-1.1153c-13.207-47.859-31.531-105.61-34.512-140.93-2.9848-35.376-1.6556-66.861 2.9707-98.256 4.5171-30.653 12.195-61.274 22.088-95.377 16.17-7.4202 32.852-10.882 50.006-11.201 19.294-0.3593 39.004 3.2492 58.834 9.5117 40.826 12.893 79.956 36.268 114.37 55.742-31.431-22.805-69.192-50.642-109.73-68.139-0.61945-0.26737-1.2436-0.52615-1.8652-0.78906 11.409-1.7915 22.085-4.5876 31.717-8.8594 16.996-7.5377 30.191-19.407 38.715-37.465-10.359 17.014-24.582 26.496-40.945 31.541-16.422 5.0628-35.584 5.8368-56.434 4.6641l-0.00391 0.52343c-11.065-3.1661-22.392-5.4204-33.922-6.4219-13.802-1.1989-27.936-0.61203-42.24 2.3125 4.5313-14.935 8.9912-29.282 13.793-44.891 27.519-16.612 51.998-24.631 73.768-29.514 13.687-3.0699 26.114-4.8755 37.955-6.8848 11.663-1.979 22.658-4.1421 32.469-7.9707 4.1888-1.6347 8.136-3.5692 11.84-5.8984 12.833 10.61 24.848 16.362 36.234 18.242 11.61 1.9171 22.139-0.25032 31.842-4.8301 19.49-9.1989 36.671-28.72 53.641-46.916-18.628 17.373-36.424 34.867-55.697 42.066-9.2526 3.4561-18.573 4.4123-28.252 2.0098-9.0294-2.2412-18.745-7.5034-29.383-16.957 1.9233-1.7652 3.7629-3.6907 5.5137-5.8047 7.0939-8.5652 12.501-19.853 16.586-35.033 8.1187-30.172 11.397-77.323 10.283-152.3-1.1189 75.3-6.6935 121.66-16.688 150.33-4.9746 14.273-10.923 23.785-17.561 30.209-6.5594 6.3487-14.043 9.921-22.566 12.158-8.6822 2.279-18.591 3.2128-30.285 4.0703-8.4085 0.61656-17.776 1.2007-27.904 2.2852 7.258-9.3113 12.253-19.852 15.621-30.938 6.5515-21.563 7.2338-45.999 6.082-69.326-1.1656 23.607-4.2354 47.146-12.623 66.967-6.3144 14.922-15.436 27.226-28.475 35.977-15.91 2.7558-33.395 7.2766-52.412 15.184 1.4784-4.9509 2.9817-10.006 4.5723-15.422 5.3788-18.805 4.6344-38.458 1.0938-57.432-3.5233-18.88-10.058-38.306-17.592-57.352 12.65-13.289 25.795-25.235 39.033-37.094 17.503-15.68 34.977-31.045 50.416-48.451 9.1579-10.324 17.557-21.332 24.916-33.555 19.111 4.7655 34.24 1.128 46.215-6.5156 11.996-7.6566 21.065-19.432 28.551-31.07-9.2852 10.685-19.45 20.409-31.434 25.768-10.904 4.8756-23.01 6.0016-37.4 1.2559 2.9717-5.7026 5.7285-11.668 8.2363-17.951 9.7701-24.48 15.758-53.551 16.691-90.021-3.1172 36.412-11.26 64.55-22.666 87.344-11.374 22.73-26.059 40.277-42.498 55.611-16.267 15.174-34.372 28.3-53.391 42.441-11.898 8.8471-24.231 18.149-36.518 28.549-13.423-31.015-27.509-59.602-38.035-88.996-6.25-17.452-10.532-33.583-11.641-48.17-1.096-14.422 0.91077-27.316 7.5918-38.414 6.7397-11.195 18.552-21.057 37.777-28.338 19.222-7.2796 45.31-11.761 79.938-12.609-4.3107-0.10564-8.5-0.15633-12.57-0.15039-28.492 0.0416-51.163 2.7931-68.963 7.9199-20.363 5.8649-34.912 15.008-44.533 27.383-9.6782 12.448-13.968 27.678-14.518 44.516-0.0623 1.9101-0.07016 3.8438-0.03906 5.7949-23.926-7.5915-43.814-25.959-54.746-48.771-11.765-24.55-13.036-54.217 3.1445-79.389z"/>
 <path d="m262.06 146.81c-17.936 24.1-19.473 54.639-8.7969 81.84 10.322 26.298 32.19 49.512 61.205 59.213 1.1895 11.314 3.5886 23.124 6.7168 35.145 9.4699 36.389 27.384 80.013 38.383 116.4 4.7648 15.763 8.4491 30.674 10.367 44.445-10.183-6.6762-20.774-11.668-31.357-15.619-21.524-8.0362-46.37-12.81-65.475-18.592-20.191-6.1102-38.319-14.267-51.791-30.682-13.621-16.596-22.801-42.016-23.738-82.807-0.93101 40.521 6.2604 67.297 19.254 86.17 11.727 17.034 27.945 27.275 46.037 35.164-14.052 6.8964-25.346 17.021-36.486 24.955-7.2564 5.1678-14.8 9.726-23.52 12.5-8.734 2.7785-18.766 3.8044-30.951 1.7402 12.036 2.7798 22.265 2.539 31.529 0.37305 9.2762-2.1688 17.455-6.237 25.336-10.939 15.152-9.0409 27.907-19.38 45.156-24.131 19.905 7.5984 38.401 12.534 58.145 21.789 14.323 6.7143 27.543 15.075 39.045 27.029-0.59724 7.8873-2.1612 14.821-4.6914 20.846-16.386 43.74-31.582 79.864-45.562 115.43-2.4584 6.2538-4.841 12.437-7.1816 18.598-23.851-13.787-45.993-22.1-66.025-27.893 12.829-16.597 18.928-34.432 20.666-52.66 2.0048-21.022-1.7049-43.021-7.6348-65.115 3.0698 23.019 3.5204 44.39-1.2148 63.609-4.6819 19.003-14.282 35.33-30.902 49.156-21.904-5.2625-38.945-7.9033-55.029-13.416-9.0076-3.0874-17.036-6.9463-24.113-12.482-7.0962-5.5512-13.508-12.999-18.98-23.475-11.06-21.17-17.904-53.935-19.312-105.93-1.3966 51.562 2.5163 85.682 11.635 109.38 4.614 11.99 10.625 21.497 18.133 29.328 7.5136 7.8368 16.276 13.733 26.027 18.662 6.5596 3.3159 13.829 6.2793 21.523 9.1309-10.238 14.418-23.673 22.531-38.828 25.186-16.913 2.9622-35.818-0.93487-53.584-10.572 16.437 11.397 35.534 18.091 54.355 17.123 18.305-0.94166 36.373-9.1916 50.662-27.252 10.32 3.5716 21.062 7.1504 31.783 11.246 21.448 8.1932 44.679 19.016 69.553 36.977-6.1053 17.715-11.541 35.388-16.059 53.486-8.718 34.925-14.009 71.307-14.264 112.44-0.25503 41.155 4.5345 86.418 15.475 139.35l90.053-1.1153c-13.207-47.859-31.531-105.61-34.512-140.93-2.9848-35.376-1.6556-66.861 2.9707-98.256 4.5171-30.653 12.195-61.274 22.088-95.377 16.17-7.4202 32.852-10.882 50.006-11.201 19.294-0.3593 39.004 3.2492 58.834 9.5117 40.826 12.893 79.956 36.268 114.37 55.742-31.431-22.805-69.192-50.642-109.73-68.139-0.61945-0.26737-1.2436-0.52615-1.8652-0.78906 11.409-1.7915 22.085-4.5876 31.717-8.8594 16.996-7.5377 30.191-19.407 38.715-37.465-10.359 17.014-24.582 26.496-40.945 31.541-16.422 5.0628-35.584 5.8368-56.434 4.6641l-0.00391 0.52343c-11.065-3.1661-22.392-5.4204-33.922-6.4219-13.802-1.1989-27.936-0.61203-42.24 2.3125 4.5313-14.935 8.9912-29.282 13.793-44.891 27.519-16.612 51.998-24.631 73.768-29.514 13.687-3.0699 26.114-4.8755 37.955-6.8848 11.663-1.979 22.658-4.1421 32.469-7.9707 4.1888-1.6347 8.136-3.5692 11.84-5.8984 12.833 10.61 24.848 16.362 36.234 18.242 11.61 1.9171 22.139-0.25032 31.842-4.8301 19.49-9.1989 36.671-28.72 53.641-46.916-18.628 17.373-36.424 34.867-55.697 42.066-9.2526 3.4561-18.573 4.4123-28.252 2.0098-9.0294-2.2412-18.745-7.5034-29.383-16.957 1.9233-1.7652 3.7629-3.6907 5.5137-5.8047 7.0939-8.5652 12.501-19.853 16.586-35.033 8.1187-30.172 11.397-77.323 10.283-152.3-1.1189 75.3-6.6935 121.66-16.688 150.33-4.9746 14.273-10.923 23.785-17.561 30.209-6.5594 6.3487-14.043 9.921-22.566 12.158-8.6822 2.279-18.591 3.2128-30.285 4.0703-8.4085 0.61656-17.776 1.2007-27.904 2.2852 7.258-9.3113 12.253-19.852 15.621-30.938 6.5515-21.563 7.2338-45.999 6.082-69.326-1.1656 23.607-4.2354 47.146-12.623 66.967-6.3144 14.922-15.436 27.226-28.475 35.977-15.91 2.7558-33.395 7.2766-52.412 15.184 1.4784-4.9509 2.9817-10.006 4.5723-15.422 5.3788-18.805 4.6344-38.458 1.0938-57.432-3.5233-18.88-10.058-38.306-17.592-57.352 12.65-13.289 25.795-25.235 39.033-37.094 17.503-15.68 34.977-31.045 50.416-48.451 9.1579-10.324 17.557-21.332 24.916-33.555 19.111 4.7655 34.24 1.128 46.215-6.5156 11.996-7.6566 21.065-19.432 28.551-31.07-9.2852 10.685-19.45 20.409-31.434 25.768-10.904 4.8756-23.01 6.0016-37.4 1.2559 2.9717-5.7026 5.7285-11.668 8.2363-17.951 9.7701-24.48 15.758-53.551 16.691-90.021-3.1172 36.412-11.26 64.55-22.666 87.344-11.374 22.73-26.059 40.277-42.498 55.611-16.267 15.174-34.372 28.3-53.391 42.441-11.898 8.8471-24.231 18.149-36.518 28.549-13.423-31.015-27.509-59.602-38.035-88.996-6.25-17.452-10.532-33.583-11.641-48.17-1.096-14.422 0.91077-27.316 7.5918-38.414 6.7397-11.195 18.552-21.057 37.777-28.338 19.222-7.2796 45.31-11.761 79.938-12.609-4.3107-0.10564-8.5-0.15633-12.57-0.15039-28.492 0.0416-51.163 2.7931-68.963 7.9199-20.363 5.8649-34.912 15.008-44.533 27.383-9.6782 12.448-13.968 27.678-14.518 44.516-0.0623 1.9101-0.07016 3.8438-0.03906 5.7949-23.926-7.5915-43.814-25.959-54.746-48.771-11.765-24.55-13.036-54.217 3.1445-79.389z" fill="url(#b)"/>
 <g id="a" transform="matrix(.43055 0 0 .43055 559.41 245.54)" fill="#6b8e23">
  <path d="m-153.64 354.09a41.79 55.282 0 0 0 -21.984 48.622 41.79 55.282 0 0 0 21.923 48.622 41.79 55.282 0 0 0 21.984 -48.622 41.79 55.282 0 0 0 -21.923 -48.622z"/>
  <path d="m-241.39 390.41a55.282 41.79 45 0 0 18.836 49.926 55.282 41.79 45 0 0 49.883 18.879 55.282 41.79 45 0 0 -18.836 -49.926 55.282 41.79 45 0 0 -49.883 -18.879z"/>
  <path d="m-277.75 478.14a55.282 41.79 0 0 0 48.622 21.984 55.282 41.79 0 0 0 48.622 -21.923 55.282 41.79 0 0 0 -48.622 -21.984 55.282 41.79 0 0 0 -48.622 21.923z"/>
  <path d="m-241.43 565.89a41.79 55.282 45 0 0 49.926 -18.836 41.79 55.282 45 0 0 18.879 -49.883 41.79 55.282 45 0 0 -49.926 18.836 41.79 55.282 45 0 0 -18.879 49.883z"/>
  <path d="m-153.7 602.26a41.79 55.282 0 0 0 21.984 -48.622 41.79 55.282 0 0 0 -21.923 -48.622 41.79 55.282 0 0 0 -21.984 48.622 41.79 55.282 0 0 0 21.923 48.622z"/>
  <path d="m-65.95 565.93a55.282 41.79 45 0 0 -18.836 -49.926 55.282 41.79 45 0 0 -49.883 -18.879 55.282 41.79 45 0 0 18.836 49.926 55.282 41.79 45 0 0 49.883 18.879z"/>
  <path d="m-29.585 478.2a55.282 41.79 0 0 0 -48.622 -21.984 55.282 41.79 0 0 0 -48.622 21.923 55.282 41.79 0 0 0 48.622 21.984 55.282 41.79 0 0 0 48.622 -21.923z"/>
  <path d="m-65.907 390.45a41.79 55.282 45 0 0 -49.926 18.836 41.79 55.282 45 0 0 -18.879 49.883 41.79 55.282 45 0 0 49.926 -18.836 41.79 55.282 45 0 0 18.879 -49.883z"/>
 </g>
 <use transform="matrix(.39632 .64998 -.64998 .39632 295.82 -155.97)" width="100%" height="100%" xlink:href="#a"/>
 <use transform="matrix(.57099 -.25799 .25799 .57099 -130.69 404.1)" width="100%" height="100%" xlink:href="#a"/>
 <use transform="matrix(.65934 -.43521 .43521 .65934 -409.35 408.02)" width="100%" height="100%" xlink:href="#a"/>
 <use transform="matrix(.91726 -.1081 .1081 .91726 -402.83 301.57)" width="100%" height="100%" xlink:href="#a"/>
 <use transform="matrix(.89055 -.56765 .56765 .89055 -234.95 227.54)" width="100%" height="100%" xlink:href="#a"/>
 <use transform="matrix(.59609 .48876 -.48876 .59609 512.44 -157.95)" width="100%" height="100%" xlink:href="#a"/>
 <use transform="matrix(.73589 -.012332 .012332 .73589 141.97 222.17)" width="100%" height="100%" xlink:href="#a"/>
 <use transform="matrix(.64344 .30513 -.30513 .64344 253.6 -249.69)" width="100%" height="100%" xlink:href="#a"/>
 <use transform="matrix(.055013 -.89596 .89596 .055013 -88.005 779.5)" width="100%" height="100%" xlink:href="#a"/>
 <use transform="matrix(.83891 -.040836 .040836 .83891 146.9 354.43)" width="100%" height="100%" xlink:href="#a"/>
 <use transform="matrix(.76131 -.013709 .013709 .76131 -121.37 -185.02)" width="100%" height="100%" xlink:href="#a"/>
 <use transform="matrix(.5749 .42317 -.42317 .5749 442.07 -271.37)" width="100%" height="100%" xlink:href="#a"/>
 <use transform="matrix(.72566 -.16745 .16745 .72566 -238.88 254.73)" width="100%" height="100%" xlink:href="#a"/>
 <use transform="matrix(.6909 -.30019 .30019 .6909 183.43 349.59)" width="100%" height="100%" xlink:href="#a"/>
 <g transform="matrix(.33103 0 0 .33103 597.63 452.28)" fill="#6b8e23">
  <path d="m-153.64 354.09a41.79 55.282 0 0 0 -21.984 48.622 41.79 55.282 0 0 0 21.923 48.622 41.79 55.282 0 0 0 21.984 -48.622 41.79 55.282 0 0 0 -21.923 -48.622z"/>
  <path d="m-241.39 390.41a55.282 41.79 45 0 0 18.836 49.926 55.282 41.79 45 0 0 49.883 18.879 55.282 41.79 45 0 0 -18.836 -49.926 55.282 41.79 45 0 0 -49.883 -18.879z"/>
  <path d="m-277.75 478.14a55.282 41.79 0 0 0 48.622 21.984 55.282 41.79 0 0 0 48.622 -21.923 55.282 41.79 0 0 0 -48.622 -21.984 55.282 41.79 0 0 0 -48.622 21.923z"/>
  <path d="m-241.43 565.89a41.79 55.282 45 0 0 49.926 -18.836 41.79 55.282 45 0 0 18.879 -49.883 41.79 55.282 45 0 0 -49.926 18.836 41.79 55.282 45 0 0 -18.879 49.883z"/>
  <path d="m-153.7 602.26a41.79 55.282 0 0 0 21.984 -48.622 41.79 55.282 0 0 0 -21.923 -48.622 41.79 55.282 0 0 0 -21.984 48.622 41.79 55.282 0 0 0 21.923 48.622z"/>
  <path d="m-65.95 565.93a55.282 41.79 45 0 0 -18.836 -49.926 55.282 41.79 45 0 0 -49.883 -18.879 55.282 41.79 45 0 0 18.836 49.926 55.282 41.79 45 0 0 49.883 18.879z"/>
  <path d="m-29.585 478.2a55.282 41.79 0 0 0 -48.622 -21.984 55.282 41.79 0 0 0 -48.622 21.923 55.282 41.79 0 0 0 48.622 21.984 55.282 41.79 0 0 0 48.622 -21.923z"/>
  <path d="m-65.907 390.45a41.79 55.282 45 0 0 -49.926 18.836 41.79 55.282 45 0 0 -18.879 49.883 41.79 55.282 45 0 0 49.926 -18.836 41.79 55.282 45 0 0 18.879 -49.883z"/>
 </g>
 <g transform="matrix(.32373 .069133 -.069133 .32373 659.75 126.13)" fill="#6b8e23">
  <path d="m-153.64 354.09a41.79 55.282 0 0 0 -21.984 48.622 41.79 55.282 0 0 0 21.923 48.622 41.79 55.282 0 0 0 21.984 -48.622 41.79 55.282 0 0 0 -21.923 -48.622z"/>
  <path d="m-241.39 390.41a55.282 41.79 45 0 0 18.836 49.926 55.282 41.79 45 0 0 49.883 18.879 55.282 41.79 45 0 0 -18.836 -49.926 55.282 41.79 45 0 0 -49.883 -18.879z"/>
  <path d="m-277.75 478.14a55.282 41.79 0 0 0 48.622 21.984 55.282 41.79 0 0 0 48.622 -21.923 55.282 41.79 0 0 0 -48.622 -21.984 55.282 41.79 0 0 0 -48.622 21.923z"/>
  <path d="m-241.43 565.89a41.79 55.282 45 0 0 49.926 -18.836 41.79 55.282 45 0 0 18.879 -49.883 41.79 55.282 45 0 0 -49.926 18.836 41.79 55.282 45 0 0 -18.879 49.883z"/>
  <path d="m-153.7 602.26a41.79 55.282 0 0 0 21.984 -48.622 41.79 55.282 0 0 0 -21.923 -48.622 41.79 55.282 0 0 0 -21.984 48.622 41.79 55.282 0 0 0 21.923 48.622z"/>
  <path d="m-65.95 565.93a55.282 41.79 45 0 0 -18.836 -49.926 55.282 41.79 45 0 0 -49.883 -18.879 55.282 41.79 45 0 0 18.836 49.926 55.282 41.79 45 0 0 49.883 18.879z"/>
  <path d="m-29.585 478.2a55.282 41.79 0 0 0 -48.622 -21.984 55.282 41.79 0 0 0 -48.622 21.923 55.282 41.79 0 0 0 48.622 21.984 55.282 41.79 0 0 0 48.622 -21.923z"/>
  <path d="m-65.907 390.45a41.79 55.282 45 0 0 -49.926 18.836 41.79 55.282 45 0 0 -18.879 49.883 41.79 55.282 45 0 0 49.926 -18.836 41.79 55.282 45 0 0 18.879 -49.883z"/>
 </g>
 <use transform="matrix(.055013 -.89596 .89596 .055013 -163.47 665.62)" width="100%" height="100%" xlink:href="#a"/>
 <use transform="matrix(.055013 -.89596 .89596 .055013 -1.5656 1066.3)" width="100%" height="100%" xlink:href="#a"/>
 <use transform="matrix(.042397 -.6905 .6905 .042397 249.7 771.66)" width="100%" height="100%" xlink:href="#a"/>
 <use transform="matrix(.57577 -.65477 .65477 .57577 -231.88 277.27)" width="100%" height="100%" xlink:href="#a"/>
 <use transform="matrix(.053436 -.87027 .87027 .053436 -125.03 864.96)" width="100%" height="100%" xlink:href="#a"/>
 <use transform="matrix(.78622 .0894 -.0894 .78622 -222.73 175.38)" width="100%" height="100%" xlink:href="#a"/>
 <path d="m359.48 986.5c-21.637-20.629-20.487-49.114-28.813-74.091-22.663-67.989 9.6044-134.29 9.6044-194.83 0-9.4285 13.527-34.108 6.8602-27.441-48.338 48.338-76.932 290.41 12.348 296.36z" opacity=".1"/>
 <use transform="matrix(.78755 -.038336 .038336 .78755 103.39 336.59)" width="100%" height="100%" xlink:href="#a"/>
 <use transform="matrix(.35262 .36295 -.36295 .35262 506.68 -72.727)" width="100%" height="100%" xlink:href="#a"/>
 <use transform="matrix(.46001 .47348 -.47348 .46001 580.44 116.52)" width="100%" height="100%" xlink:href="#a"/>
 <use transform="matrix(.35262 .36295 -.36295 .35262 158.18 330.66)" width="100%" height="100%" xlink:href="#a"/>
 <use transform="matrix(.35262 .36295 -.36295 .35262 211.69 86.43)" width="100%" height="100%" xlink:href="#a"/>
 <use transform="matrix(.49581 .51032 -.51032 .49581 243.27 132.96)" width="100%" height="100%" xlink:href="#a"/>
</svg>
