<svg xmlns="http://www.w3.org/2000/svg" width="100" height="100" fill="none"><path fill="#fff" d="M0 0h100v100H0z"/><path d="M27.64 18c0 .836-.14 1.566-.422 2.19s-.68 1.096-1.195 1.424-1.117.492-1.805.492c-.672 0-1.268-.164-1.787-.492s-.924-.803-1.213-1.412-.432-1.322-.44-2.127v-.615c0-.82.143-1.545.428-2.174s.688-1.11 1.207-1.44 1.12-.504 1.793-.504c.684 0 1.285.166 1.805.498s.926.807 1.207 1.436.422 1.354.422 2.186V18zm-1.12-.55c0-1.012-.203-1.787-.61-2.326s-.975-.814-1.705-.814c-.71 0-1.27.27-1.682.814s-.615 1.29-.627 2.25V18c0 .98.205 1.752.615 2.314s.982.838 1.705.838 1.29-.264 1.687-.79.604-1.29.615-2.28v-.633zm8.004 1.44c0 .97-.223 1.748-.668 2.338s-1.043.88-1.793.88c-.8 0-1.42-.283-1.858-.85l-.053.732h-.996v-9h1.084v3.357c.438-.543 1.04-.814 1.81-.814s1.373.29 1.81.873.662 1.38.662 2.39v.094zm-1.084-.123c0-.738-.143-1.308-.428-1.71s-.695-.604-1.23-.604c-.715 0-1.23.332-1.54.996V20.2c.332.664.85.996 1.553.996.52 0 .924-.2 1.213-.603s.434-1.008.434-1.817zm5.52-2.145c-.164-.027-.342-.04-.533-.04-.71 0-1.193.303-1.447.908V22h-1.084v-6.34h1.055l.018.732c.355-.566.86-.85 1.512-.85.21 0 .37.027.48.082v1.008zM43.643 22c-.062-.125-.113-.348-.152-.668-.504.523-1.105.785-1.805.785-.625 0-1.14-.176-1.54-.527s-.598-.805-.598-1.348c0-.66.25-1.172.75-1.535s1.21-.55 2.12-.55h1.055v-.498c0-.38-.113-.68-.34-.902s-.56-.34-1.002-.34c-.387 0-.71.098-.973.293s-.393.432-.393.71h-1.1c0-.316.11-.62.334-.914s.53-.53.914-.703.81-.258 1.272-.258c.73 0 1.303.184 1.717.55s.63.865.645 1.506v2.918c0 .582.074 1.045.223 1.39V22h-1.137zm-1.8-.826c.34 0 .662-.088.967-.264s.525-.404.662-.686v-1.3h-.85c-1.328 0-1.992.39-1.992 1.166 0 .34.113.605.34.797s.518.287.873.287zM42.846 13h1.313l-1.57 1.723h-.873L42.846 13zm4.43 8.115h3.71V22H45.95v-.797l3.498-4.646h-3.445v-.896h4.805v.768l-3.533 4.688zm4.553-2.344c0-.62.12-1.18.363-1.676s.586-.88 1.02-1.148a2.79 2.79 0 0 1 1.494-.404c.863 0 1.56.3 2.092.896s.803 1.393.803 2.385v.076c0 .617-.12 1.172-.357 1.664a2.67 2.67 0 0 1-1.014 1.143c-.437.273-.94.4-1.512.4-.86 0-1.557-.3-2.092-.896s-.797-1.39-.797-2.373v-.076zm1.1.13c0 .703.162 1.268.486 1.693s.766.64 1.313.64.988-.215 1.313-.644.486-1.04.486-1.816c0-.695-.166-1.258-.498-1.687a1.56 1.56 0 0 0-1.312-.65c-.535 0-.967.213-1.295.64s-.492 1.035-.492 1.828zm7.8.164l-.68.71V22h-1.084v-9h1.084v5.443l.58-.697 1.975-2.086h1.318l-2.467 2.648L64.21 22h-1.272l-2.21-2.936zm10.98 1.254c0-.293-.11-.52-.334-.68s-.603-.305-1.154-.422-.982-.258-1.307-.422-.56-.36-.715-.586-.23-.496-.23-.81c0-.52.22-.96.656-1.318s1.004-.54 1.688-.54c.72 0 1.3.186 1.746.557s.674.846.674 1.424h-1.1c0-.297-.127-.553-.38-.767s-.566-.322-.95-.322c-.395 0-.703.086-.926.258a.81.81 0 0 0-.334.674c0 .262.103.46.31.592s.58.26 1.12.38.982.266 1.318.434.584.37.744.61.246.52.246.86a1.63 1.63 0 0 1-.68 1.365c-.453.34-1.04.5-1.764.5-.508 0-.957-.1-1.348-.27s-.697-.43-.92-.75a1.84 1.84 0 0 1-.328-1.049h1.084c.02.363.164.652.434.867s.633.316 1.078.316c.4 0 .738-.082.984-.246a.77.77 0 0 0 .375-.668zM78.12 22c-.062-.125-.113-.348-.152-.668-.504.523-1.106.785-1.805.785-.625 0-1.14-.176-1.54-.527s-.598-.805-.598-1.348c0-.66.25-1.172.75-1.535s1.21-.55 2.12-.55h1.055v-.498c0-.38-.113-.68-.34-.902s-.56-.34-1.002-.34c-.387 0-.71.098-.973.293s-.393.432-.393.71h-1.1c0-.316.11-.62.334-.914s.53-.53.914-.703.8-.258 1.27-.258c.73 0 1.303.184 1.717.55s.63.865.644 1.506v2.918c0 .582.074 1.045.223 1.39V22H78.12zm-1.8-.826c.34 0 .662-.088.967-.264s.525-.404.662-.686v-1.3h-.85c-1.328 0-1.992.39-1.992 1.166 0 .34.113.605.34.797s.517.287.873.287zM29.346 29.66l.035.797c.484-.61 1.117-.914 1.898-.914 1.34 0 2.016.756 2.027 2.268V36h-1.084v-4.195c-.004-.457-.11-.795-.317-1.014s-.52-.328-.955-.328c-.352 0-.66.094-.926.28a1.91 1.91 0 0 0-.621.738V36H28.32v-6.34h1.025zm9.5 6.34c-.062-.125-.113-.348-.152-.668-.504.523-1.105.785-1.805.785-.625 0-1.14-.176-1.54-.527s-.598-.805-.598-1.348c0-.66.25-1.172.75-1.535s1.21-.55 2.12-.55h1.055v-.498c0-.38-.113-.68-.34-.902s-.56-.34-1.002-.34c-.387 0-.71.098-.973.293s-.393.432-.393.71h-1.1c0-.316.11-.62.334-.914s.53-.53.914-.703.81-.258 1.272-.258c.73 0 1.303.184 1.717.55s.63.865.645 1.506v2.918c0 .582.074 1.045.223 1.39V36h-1.137zm-1.8-.826c.34 0 .662-.088.967-.264s.525-.404.662-.686v-1.3h-.85c-1.328 0-1.992.39-1.992 1.166 0 .34.113.606.34.797s.518.287.873.287zm6.955.06a1.56 1.56 0 0 0 1.014-.352c.29-.234.45-.527.48-.88h1.025c-.02.363-.145.71-.375 1.037s-.54.6-.926.785-.79.293-1.22.293c-.863 0-1.55-.287-2.062-.86s-.762-1.367-.762-2.367v-.182c0-.617.113-1.166.34-1.646s.55-.854.973-1.12.928-.398 1.506-.398c.71 0 1.3.213 1.77.64s.725.98.756 1.658h-1.025c-.03-.4-.187-.746-.47-1.008s-.62-.398-1.03-.398c-.55 0-.98.2-1.283.598s-.45.967-.45 1.717v.205c0 .73.15 1.293.45 1.688s.73.592 1.29.592zm-.252-7.236l.88-.996h.938v.06l-1.488 1.606h-.662l-1.47-1.606V27h.92l.885.996zM48.928 36h-1.1v-6.34h1.1V36zm.012-8.994h1.313l-1.57 1.723h-.873l1.13-1.723zm3.246 1.12v1.535h1.184v.838h-1.184v3.932c0 .254.053.445.158.574s.285.188.54.188c.125 0 .297-.023.516-.07V36c-.285.078-.562.117-.832.117-.484 0-.85-.146-1.096-.44s-.37-.71-.37-1.248v-3.932h-1.154v-.838h1.154v-1.535h1.084zM58.555 36c-.062-.125-.113-.348-.152-.668-.504.523-1.105.785-1.805.785-.625 0-1.14-.176-1.54-.527s-.598-.805-.598-1.348c0-.66.25-1.172.75-1.535s1.21-.55 2.12-.55h1.055v-.498c0-.38-.113-.68-.34-.902s-.56-.34-1.002-.34c-.387 0-.71.098-.973.293s-.393.432-.393.71h-1.1c0-.316.11-.62.334-.914s.53-.53.914-.703.81-.258 1.27-.258c.73 0 1.303.184 1.717.55s.63.865.645 1.506v2.918c0 .582.074 1.045.223 1.39V36h-1.137zm-1.8-.826c.34 0 .662-.088.967-.264s.525-.404.662-.686v-1.3h-.85c-1.328 0-1.992.39-1.992 1.166 0 .34.113.606.34.797s.518.287.873.287zm6.4-.645l1.57-4.87h1.108L63.57 36h-.826l-2.297-6.34h1.107l1.61 4.87zm7.54 1.47c-.062-.125-.113-.348-.152-.668-.504.523-1.105.785-1.805.785-.625 0-1.14-.176-1.54-.527s-.598-.805-.598-1.348c0-.66.25-1.172.75-1.535s1.21-.55 2.12-.55h1.055v-.498c0-.38-.113-.68-.34-.902s-.56-.34-1.002-.34c-.387 0-.71.098-.973.293s-.393.432-.393.71h-1.1c0-.316.11-.62.334-.914s.53-.53.914-.703.81-.258 1.272-.258c.73 0 1.303.184 1.717.55s.63.865.644 1.506v2.918c0 .582.074 1.045.223 1.39V36h-1.137zm-1.8-.826c.34 0 .662-.088.967-.264s.525-.404.662-.686v-1.3h-.85c-1.328 0-1.992.39-1.992 1.166 0 .34.113.606.34.797s.517.287.873.287z" fill="#000"/><g clip-path="url(#A)" fill="#000"><path d="M61.675 57.997c-.34-.23-.802-.144-1.033.195l-1.518 2.225c-.96-4.432-4.913-7.765-9.625-7.765a9.78 9.78 0 0 0-6.963 2.885c-.3.3-.3.76 0 1.05s.76.3 1.05 0c1.58-1.58 3.68-2.45 5.912-2.45a8.38 8.38 0 0 1 8.224 6.86L55.086 59.2c-.34-.232-.802-.144-1.033.195s-.144.802.195 1.033l3.936 2.684a.74.74 0 0 0 .419.13c.237 0 .47-.114.615-.325l2.652-3.9c.23-.34.144-.802-.195-1.033zM55.55 68.27a8.29 8.29 0 0 1-6.052 2.592 8.38 8.38 0 0 1-8.223-6.861l2.637 1.798a.74.74 0 0 0 1.033-.195c.23-.34.144-.802-.195-1.033l-3.936-2.684c-.34-.232-.802-.144-1.033.195l-2.653 3.9c-.23.34-.144.802.195 1.033a.74.74 0 0 0 1.033-.195l1.517-2.225c.96 4.432 4.913 7.765 9.625 7.765a9.76 9.76 0 0 0 7.127-3.052c.283-.297.272-.768-.025-1.05s-.768-.272-1.05.025z"/></g><defs><clipPath id="A"><path fill="#fff" d="M37 50h25v25H37z"/></clipPath></defs></svg>