<?xml version="1.0" encoding="UTF-8"?>
<svg enable-background="new 0 0 595.28 841.89" viewBox="0 0 595.28 841.89" xmlns="http://www.w3.org/2000/svg">
 <defs>
  <linearGradient id="f" x1="107.71" x2="273.04" y1="178.94" y2="134.64" gradientUnits="userSpaceOnUse">
   <stop stop-color="#b3ce4e" offset=".1067"/>
   <stop stop-color="#d9e28b" offset=".4326"/>
   <stop stop-color="#95c123" offset=".9045"/>
  </linearGradient>
  <linearGradient id="e" x1="27.361" x2="258.62" gradientUnits="userSpaceOnUse">
   <stop stop-color="#b3ce4e" offset=".0899"/>
   <stop stop-color="#d9e28b" offset=".309"/>
   <stop stop-color="#95c123" offset=".6742"/>
  </linearGradient>
  <linearGradient id="d" x1="721.58" x2="834.16" y1="231" y2="200.84" gradientTransform="matrix(-1 0 0 1 1159.6 0)" gradientUnits="userSpaceOnUse">
   <stop stop-color="#b3ce4e" offset=".1067"/>
   <stop stop-color="#d9e28b" offset=".4326"/>
   <stop stop-color="#95c123" offset=".9045"/>
  </linearGradient>
  <linearGradient id="c" x1="492.71" x2="335.23" gradientUnits="userSpaceOnUse">
   <stop stop-color="#b3ce4e" offset=".0899"/>
   <stop stop-color="#d9e28b" offset=".309"/>
   <stop stop-color="#95c123" offset=".6742"/>
  </linearGradient>
  <linearGradient id="b" x1="303.92" x2="303.92" y1="745.33" y2="355.56" gradientUnits="userSpaceOnUse">
   <stop stop-color="#e6c28e" offset="0"/>
   <stop stop-color="#fdd59b" offset=".0769"/>
   <stop stop-color="#e8bd8b" offset=".6484"/>
  </linearGradient>
  <linearGradient id="a" x1="134.6" x2="160.52" y1="350.51" y2="406.1" gradientUnits="userSpaceOnUse">
   <stop stop-color="#9f834a" offset=".3652"/>
   <stop stop-color="#92753d" offset=".5174"/>
   <stop stop-color="#735420" offset=".8059"/>
   <stop stop-color="#624314" offset=".9551"/>
  </linearGradient>
  <radialGradient id="g" cx="1545.2" cy="18560" r="657.5" gradientTransform="matrix(.4213 0 0 .05 -346.8 -184.82)" gradientUnits="userSpaceOnUse">
   <stop stop-color="#a1a1a1" offset=".0385"/>
   <stop stop-color="#b8b8b8" offset=".2808"/>
   <stop stop-color="#ccc" offset=".478"/>
   <stop stop-color="#fff" offset=".9286"/>
  </radialGradient>
 </defs>
 <path d="m581.22 743.17c0 18.141-124.06 32.865-277.08 32.865-153.03 0-277.06-14.725-277.06-32.865 0-18.131 124.04-32.865 277.06-32.865 153.02 0 277.08 14.734 277.08 32.865z" fill="url(#g)"/>
 <path d="m27.361 53.162s12.667 20.425 44.527 29.408c31.878 8.994 98.48 2.865 158.12 33.502 59.65 30.642 61.697 85.813 58.023 104.19-3.681 18.395-24.519 22.066-24.519 22.066s7.765 31.05-40.036 33.916c-169.56-15.118-196.12-223.08-196.12-223.08z" fill="#94c122"/>
 <path d="m230 116.07c-53.649-27.562-112.92-25.37-147.49-31.193 32.383 10.814 95.704 11.171 149.33 46.208 48.423 31.631 52.428 78.915 49.004 102.28 3.271-3.202 6.034-7.454 7.171-13.108 3.673-18.391 1.636-73.541-58.016-104.18z" fill="url(#f)"/>
 <path d="m235.91 260.2c-154.03-4.609-200.38-173.9-207.78-205.92-0.507-0.713-0.767-1.122-0.767-1.122s26.55 220.55 196.1 223.06c19.619-1.178 29.882-7.092 35.154-13.674-0.079-1.29-0.173-2.61-0.288-3.941-7.443 0.419-15.353 0.755-22.423 1.591z" fill="url(#e)"/>
 <path d="m492.72 145.34s-8.632 13.909-30.336 20.037c-21.688 6.118-67.05 1.948-107.68 22.811-40.614 20.878-42.012 58.439-39.514 70.951 2.519 12.522 16.703 15.03 16.703 15.03s-5.292 21.139 27.267 23.081c115.47-10.294 133.56-151.91 133.56-151.91z" fill="#94c122"/>
 <path d="m354.71 188.19c36.536-18.768 76.906-17.284 100.44-21.24-22.046 7.362-65.169 7.607-101.7 31.468-32.962 21.536-35.685 53.733-33.359 69.646-2.233-2.182-4.114-5.078-4.895-8.933-2.488-12.512-1.101-50.078 39.513-70.941z" fill="url(#d)"/>
 <path d="m350.687,286.346c104.901-3.151 136.466-118.428 141.504-140.239 .341-.484.524-.765.524-.765s-18.084,150.191-133.545,151.91c-13.362-.8-20.357-4.838-23.942-9.315 .052-.877.128-1.774.194-2.682 5.072.286 10.462.51 15.265,1.091z" fill="url(#c)"/>
 <path d="m494.61 745.33v-224.9l-146.61-146.61c-11.772-11.767-27.44-18.252-44.084-18.252-16.649 0-32.304 6.485-44.082 18.252l-146.6 146.61v224.9h381.38z" fill="url(#b)"/>
 <path d="m227.85 714.16h152.15v15.59h-152.15z" fill="#e3e3e3"/>
 <path d="m214.69 729.75h178.47v15.582h-178.47z" fill="#d0d0d0"/>
 <path d="m234.87 530.76h138.1v183.4h-138.1z" fill="#fff"/>
 <path d="m250.8 546.79v167.36h106.26v-167.36h-106.26z" fill="#95c11f"/>
 <path d="m272.09 619.44h5.835v27.277h-5.835z" fill="#d0d0d0"/>
 <path d="m319.11 303.91c3.936-9.085 9.238-18.385 16.631-26.854 27.216-31.218 67.168-54.977 67.168-54.977s-54.064 20.308-79.276 49.211c-6.215 7.123-10.258 15.576-12.879 24.264l-6.829-6.822-6.253 6.256c-2.412-18.778-8.438-38.733-21.712-54.834-35.833-43.464-133.28-85.94-133.28-85.94s76.595 46.957 115.28 93.904c15.207 18.457 24.167 38.953 29.518 57.073l-100.35 100.35v-60.33h-64.527v124.86l-65.635 65.639 36.319 36.32 210.65-210.65 210.65 210.65 36.321-36.32-231.79-231.8z" fill="#432918"/>
 <path d="m141.99 363.5h27.82v-10.977h-39.528v62.217h11.708z" fill="url(#a)"/>
</svg>
